HIERARCHY
ROOT Hips
{
	OFFSET 0.000000 71.427986 0.000000
	CHANNELS 6 Xposition Yposition Zposition Xrotation Yrotation Zrotation
	JOINT Pelvis
	{
		OFFSET 0.000000 0.000000 0.000000
		CHANNELS 3 Xrotation Yrotation Zrotation
		JOINT LeftUpLeg
		{
			OFFSET 6.797100 -2.508499 -1.318700
			CHANNELS 3 Xrotation Yrotation Zrotation
			JOINT LeftLeg
			{
				OFFSET 0.069008 -29.241863 0.690200
				CHANNELS 3 Xrotation Yrotation Zrotation
				JOINT LeftFoot
				{
					OFFSET -0.069008 -29.568123 -0.266800
					CHANNELS 3 Xrotation Yrotation Zrotation
					JOINT LeftToeBase
					{
						OFFSET 3.145500 -8.631000 16.059900
						CHANNELS 3 Xrotation Yrotation Zrotation
						End Site
						{
							OFFSET 0.000000 18.501587 0.000000
						}
					}
				}
			}
			JOINT Left_ShortSleeve
			{
				OFFSET 0.265923 -10.480953 1.153800
				CHANNELS 3 Xrotation Yrotation Zrotation
				End Site
				{
					OFFSET 1.725763 19.823879 0.000000
				}
			}
		}
		JOINT RightUpLeg
		{
			OFFSET -6.797100 -2.508499 -1.318700
			CHANNELS 3 Xrotation Yrotation Zrotation
			JOINT RightLeg
			{
				OFFSET -0.082453 -29.241932 0.688000
				CHANNELS 3 Xrotation Yrotation Zrotation
				JOINT RightFoot
				{
					OFFSET 0.082453 -29.568058 -0.264600
					CHANNELS 3 Xrotation Yrotation Zrotation
					JOINT RightToeBase
					{
						OFFSET -3.115300 -8.682800 16.113400
						CHANNELS 3 Xrotation Yrotation Zrotation
						End Site
						{
							OFFSET 0.000000 18.567114 0.000000
						}
					}
				}
			}
			JOINT Right_ShortSleeve
			{
				OFFSET -0.265923 -10.480953 1.153800
				CHANNELS 3 Xrotation Yrotation Zrotation
				End Site
				{
					OFFSET -1.725766 19.823910 0.000000
				}
			}
		}
	}
	JOINT Spine
	{
		OFFSET 0.000000 13.368103 0.470500
		CHANNELS 3 Xrotation Yrotation Zrotation
		JOINT Spine1
		{
			OFFSET 0.147000 13.837402 0.538800
			CHANNELS 3 Xrotation Yrotation Zrotation
			JOINT Spine2
			{
				OFFSET 0.168000 16.242897 -1.435500
				CHANNELS 3 Xrotation Yrotation Zrotation
				JOINT Neck
				{
					OFFSET 0.217200 18.631500 -1.679100
					CHANNELS 3 Xrotation Yrotation Zrotation
					JOINT Head
					{
						OFFSET 0.000000 6.599396 1.385900
						CHANNELS 3 Xrotation Yrotation Zrotation
						JOINT Hat
						{
							OFFSET -0.532200 27.220596 -10.096100
							CHANNELS 3 Xrotation Yrotation Zrotation
							End Site
							{
								OFFSET 0.000000 22.029861 0.000000
							}
						}
						JOINT HairD
						{
							OFFSET -10.777400 17.437393 -1.325900
							CHANNELS 3 Xrotation Yrotation Zrotation
							JOINT HairD1
							{
								OFFSET -3.290299 -11.051193 1.062200
								CHANNELS 3 Xrotation Yrotation Zrotation
								End Site
								{
									OFFSET 0.000000 11.579437 0.000000
								}
							}
						}
						JOINT HairB
						{
							OFFSET -10.777400 17.437393 1.467900
							CHANNELS 3 Xrotation Yrotation Zrotation
							JOINT HairB1
							{
								OFFSET -1.561200 -12.956299 3.590200
								CHANNELS 3 Xrotation Yrotation Zrotation
								End Site
								{
									OFFSET 0.000000 13.534866 0.000000
								}
							}
						}
						JOINT HairA
						{
							OFFSET 9.713100 17.437393 1.467900
							CHANNELS 3 Xrotation Yrotation Zrotation
							JOINT HairA1
							{
								OFFSET 1.561200 -12.956299 3.590200
								CHANNELS 3 Xrotation Yrotation Zrotation
								End Site
								{
									OFFSET 0.000000 13.534866 0.000000
								}
							}
						}
						JOINT HairC
						{
							OFFSET 9.713100 17.437393 -1.325900
							CHANNELS 3 Xrotation Yrotation Zrotation
							JOINT HairC1
							{
								OFFSET 3.290300 -11.051193 1.062200
								CHANNELS 3 Xrotation Yrotation Zrotation
								End Site
								{
									OFFSET 0.000000 11.579437 0.000000
								}
							}
						}
					}
				}
				JOINT LeftShoulder
				{
					OFFSET 5.101800 15.108002 -2.763700
					CHANNELS 3 Xrotation Yrotation Zrotation
					JOINT LeftArm
					{
						OFFSET 9.825497 2.506317 -1.597400
						CHANNELS 3 Xrotation Yrotation Zrotation
						JOINT LeftForeArm
						{
							OFFSET 21.966244 0.000000 0.000000
							CHANNELS 3 Xrotation Yrotation Zrotation
							JOINT LeftHand
							{
								OFFSET 33.879036 0.000000 0.000000
								CHANNELS 3 Xrotation Yrotation Zrotation
								JOINT LeftHandThumb1
								{
									OFFSET 6.715286 -2.359680 3.363841
									CHANNELS 3 Xrotation Yrotation Zrotation
									JOINT LeftHandThumb2
									{
										OFFSET 2.507072 -1.447464 1.447461
										CHANNELS 3 Xrotation Yrotation Zrotation
										JOINT LeftHandThumb3
										{
											OFFSET 2.898338 -1.673355 1.673357
											CHANNELS 3 Xrotation Yrotation Zrotation
											End Site
											{
												OFFSET -0.295959 3.727692 -0.131651
											}
										}
									}
								}
								JOINT LeftHandIndex1
								{
									OFFSET 14.190811 -0.254547 3.840278
									CHANNELS 3 Xrotation Yrotation Zrotation
									JOINT LeftHandIndex2
									{
										OFFSET 3.551727 0.000000 -0.000000
										CHANNELS 3 Xrotation Yrotation Zrotation
										JOINT LeftHandIndex3
										{
											OFFSET 2.894196 0.000000 0.000000
											CHANNELS 3 Xrotation Yrotation Zrotation
											End Site
											{
												OFFSET -1.000603 2.690872 0.366626
											}
										}
									}
								}
								JOINT LeftHandMiddle1
								{
									OFFSET 13.776489 0.000000 0.000000
									CHANNELS 3 Xrotation Yrotation Zrotation
									JOINT LeftHandMiddle2
									{
										OFFSET 3.438232 0.000000 0.000000
										CHANNELS 3 Xrotation Yrotation Zrotation
										JOINT LeftHandMiddle3
										{
											OFFSET 3.691551 0.000000 0.000000
											CHANNELS 3 Xrotation Yrotation Zrotation
											End Site
											{
												OFFSET -1.082298 3.499527 0.457670
											}
										}
									}
								}
								JOINT LeftHandRing1
								{
									OFFSET 13.966164 -0.268127 -3.067488
									CHANNELS 3 Xrotation Yrotation Zrotation
									JOINT LeftHandRing2
									{
										OFFSET 3.162567 0.000000 0.000000
										CHANNELS 3 Xrotation Yrotation Zrotation
										JOINT LeftHandRing3
										{
											OFFSET 3.324348 0.000000 0.000000
											CHANNELS 3 Xrotation Yrotation Zrotation
											End Site
											{
												OFFSET -0.861900 3.184998 0.405154
											}
										}
									}
								}
								JOINT LeftHandPinky1
								{
									OFFSET 13.131393 -0.168503 -5.746925
									CHANNELS 3 Xrotation Yrotation Zrotation
									JOINT LeftHandPinky2
									{
										OFFSET 2.849182 0.000000 0.000000
										CHANNELS 3 Xrotation Yrotation Zrotation
										JOINT LeftHandPinky3
										{
											OFFSET 2.805038 0.000000 0.000000
											CHANNELS 3 Xrotation Yrotation Zrotation
											End Site
											{
												OFFSET -0.882500 2.642609 0.325652
											}
										}
									}
								}
							}
							JOINT Left_Sleeve
							{
								OFFSET 6.592125 -0.646545 0.805568
								CHANNELS 3 Xrotation Yrotation Zrotation
								End Site
								{
									OFFSET -0.000179 20.275787 -0.000000
								}
							}
						}
					}
				}
				JOINT RightShoulder
				{
					OFFSET -5.731700 15.108002 -2.763700
					CHANNELS 3 Xrotation Yrotation Zrotation
					JOINT RightArm
					{
						OFFSET -9.825497 2.506317 -1.597400
						CHANNELS 3 Xrotation Yrotation Zrotation
						JOINT RightForeArm
						{
							OFFSET -21.966242 0.000000 0.000000
							CHANNELS 3 Xrotation Yrotation Zrotation
							JOINT RightHand
							{
								OFFSET -33.879032 0.000000 0.000000
								CHANNELS 3 Xrotation Yrotation Zrotation
								JOINT RightHandThumb1
								{
									OFFSET -6.715286 -2.359680 3.363841
									CHANNELS 3 Xrotation Yrotation Zrotation
									JOINT RightHandThumb2
									{
										OFFSET -2.507072 -1.447464 1.447461
										CHANNELS 3 Xrotation Yrotation Zrotation
										JOINT RightHandThumb3
										{
											OFFSET -2.898338 -1.673355 1.673357
											CHANNELS 3 Xrotation Yrotation Zrotation
											End Site
											{
												OFFSET 0.295959 3.727692 -0.131651
											}
										}
									}
								}
								JOINT RightHandIndex1
								{
									OFFSET -14.190811 -0.254547 3.840278
									CHANNELS 3 Xrotation Yrotation Zrotation
									JOINT RightHandIndex2
									{
										OFFSET -3.551727 0.000000 -0.000000
										CHANNELS 3 Xrotation Yrotation Zrotation
										JOINT RightHandIndex3
										{
											OFFSET -2.894196 0.000000 0.000000
											CHANNELS 3 Xrotation Yrotation Zrotation
											End Site
											{
												OFFSET 1.000603 2.690872 0.366626
											}
										}
									}
								}
								JOINT RightHandMiddle1
								{
									OFFSET -13.776489 0.000000 0.000000
									CHANNELS 3 Xrotation Yrotation Zrotation
									JOINT RightHandMiddle2
									{
										OFFSET -3.438232 0.000000 0.000000
										CHANNELS 3 Xrotation Yrotation Zrotation
										JOINT RightHandMiddle3
										{
											OFFSET -3.691551 0.000000 0.000000
											CHANNELS 3 Xrotation Yrotation Zrotation
											End Site
											{
												OFFSET 1.082298 3.499527 0.457670
											}
										}
									}
								}
								JOINT RightHandRing1
								{
									OFFSET -13.966164 -0.268127 -3.067488
									CHANNELS 3 Xrotation Yrotation Zrotation
									JOINT RightHandRing2
									{
										OFFSET -3.162567 0.000000 0.000000
										CHANNELS 3 Xrotation Yrotation Zrotation
										JOINT RightHandRing3
										{
											OFFSET -3.324348 0.000000 0.000000
											CHANNELS 3 Xrotation Yrotation Zrotation
											End Site
											{
												OFFSET 0.861900 3.184998 0.405154
											}
										}
									}
								}
								JOINT RightHandPinky1
								{
									OFFSET -13.131393 -0.168503 -5.746925
									CHANNELS 3 Xrotation Yrotation Zrotation
									JOINT RightHandPinky2
									{
										OFFSET -2.849182 0.000000 0.000000
										CHANNELS 3 Xrotation Yrotation Zrotation
										JOINT RightHandPinky3
										{
											OFFSET -2.805038 0.000000 0.000000
											CHANNELS 3 Xrotation Yrotation Zrotation
											End Site
											{
												OFFSET 0.882500 2.642609 0.325652
											}
										}
									}
								}
							}
							JOINT Right_Sleeve
							{
								OFFSET -6.592125 -0.646545 0.805568
								CHANNELS 3 Xrotation Yrotation Zrotation
								End Site
								{
									OFFSET 0.000179 20.275787 -0.000000
								}
							}
						}
					}
				}
				JOINT Bind_Right_JacketString
				{
					OFFSET -3.534800 11.969597 7.200700
					CHANNELS 3 Xrotation Yrotation Zrotation
					JOINT Bind_Right_JacketString1
					{
						OFFSET -0.319900 -6.102600 2.794100
						CHANNELS 3 Xrotation Yrotation Zrotation
						End Site
						{
							OFFSET 0.000000 6.719452 0.000000
						}
					}
				}
				JOINT Bind_Left_JacketString
				{
					OFFSET 2.904800 11.969597 7.200700
					CHANNELS 3 Xrotation Yrotation Zrotation
					JOINT Bind_Left_JacketString1
					{
						OFFSET 0.364800 -5.904503 3.186800
						CHANNELS 3 Xrotation Yrotation Zrotation
						End Site
						{
							OFFSET 0.000000 6.719513 0.000000
						}
					}
				}
				JOINT HairE
				{
					OFFSET 5.915200 17.612701 -11.592200
					CHANNELS 3 Xrotation Yrotation Zrotation
					JOINT HairE1
					{
						OFFSET 0.289200 -7.171898 -1.284500
						CHANNELS 3 Xrotation Yrotation Zrotation
						End Site
						{
							OFFSET 0.000000 7.291756 0.000000
						}
					}
				}
				JOINT HairF
				{
					OFFSET -0.864800 17.612701 -11.592200
					CHANNELS 3 Xrotation Yrotation Zrotation
					JOINT HairF1
					{
						OFFSET 0.000000 -14.087097 -2.127501
						CHANNELS 3 Xrotation Yrotation Zrotation
						End Site
						{
							OFFSET 0.000000 14.246841 0.000000
						}
					}
				}
				JOINT HairG
				{
					OFFSET -8.087700 17.612701 -11.592200
					CHANNELS 3 Xrotation Yrotation Zrotation
					JOINT HairG1
					{
						OFFSET -0.293600 -6.081398 -0.910100
						CHANNELS 3 Xrotation Yrotation Zrotation
						End Site
						{
							OFFSET 0.000000 6.156120 0.000000
						}
					}
				}
			}
		}
	}
	JOINT Pouch
	{
		OFFSET 0.000000 4.394501 10.847300
		CHANNELS 3 Xrotation Yrotation Zrotation
		End Site
		{
			OFFSET 0.000000 21.880577 0.000000
		}
	}
	JOINT Bag
	{
		OFFSET -13.229000 4.813004 -0.593300
		CHANNELS 3 Xrotation Yrotation Zrotation
		End Site
		{
			OFFSET 0.000000 21.880577 0.000000
		}
	}
	JOINT OccupyGuyFacialAnim_Joint
	{
		OFFSET 1.000000 -70.206398 -1.655000
		CHANNELS 3 Xrotation Yrotation Zrotation
		End Site
		{
			OFFSET 0.000000 21.880577 0.000000
		}
	}
}
MOTION
Frames: 4
Frame Time: 0.033333
-17.005932 69.253685 -80.008003 171.579133 -187.415077 176.656040 0.000001 0.000000 -0.000000 -16.475521 8.356034 17.684613 26.944623 2.643422 -0.624597 -3.331606 -6.278039 -3.700526 -0.000000 0.000000 -0.000000 -0.000001 0.000000 -0.000001 5.325212 -4.948779 14.271617 17.909482 -9.605426 -3.419373 -17.050112 -16.086511 -4.501126 -0.000000 0.000000 -0.000000 -0.000000 0.000000 -0.000001 1.606807 0.613627 3.713141 4.872391 1.378807 3.877480 4.867686 1.316325 3.971417 0.116087 0.886159 2.782120 -29.993246 4.866270 4.398177 -0.000000 0.000001 0.000000 -0.000000 0.000001 0.000000 -0.000000 0.000001 -0.000000 -0.000000 0.000001 -0.000000 0.000000 0.000000 0.000001 -0.000000 0.000001 -0.000000 0.000000 0.000000 0.000001 -0.000000 0.000001 0.000000 -0.000000 0.000001 0.000000 -0.328938 -0.213680 -21.505991 188.629047 -200.735571 119.405954 0.000036 -62.826518 0.000046 7.849680 40.580271 5.272322 61.899225 -3.005733 32.579412 30.518866 -6.612338 19.548370 -0.000002 0.000004 0.000003 -3.320415 -1.110389 -33.364139 4.464464 5.684927 -76.268604 -0.000000 0.000001 -0.000003 -2.361985 -2.217034 -23.202467 4.526710 5.699716 -76.896127 -0.000000 0.000001 -0.000003 -1.490538 -2.283432 -16.215501 3.739902 5.458166 -68.816062 -0.000000 0.000000 0.000000 -2.958101 -3.302856 -24.130990 1.746675 4.173585 -45.404499 -0.000001 -0.000001 -0.000003 -0.000001 0.000002 -0.000001 0.550882 3.951521 18.302747 -1.647206 -11.463600 57.040330 0.000007 33.969587 -0.000013 8.129013 -3.106912 0.091117 35.612955 5.439138 -16.154567 4.935251 -23.281540 16.216522 -0.000001 -0.000001 0.000003 -0.782793 -2.199262 31.126039 0.870221 -2.712735 35.565908 -0.000002 -0.000002 -0.000002 3.365680 -8.031637 38.749022 0.455205 -2.009975 25.519137 -0.000004 0.000003 0.000003 11.868737 -18.030480 40.041629 0.491616 -2.084483 26.538384 0.000003 -0.000001 -0.000003 11.583089 -16.538388 42.827212 0.376257 -1.835569 23.166446 -0.000000 -0.000001 -0.000005 0.000000 -0.000000 -0.000000 -0.000000 -0.000000 -0.000000 -0.000000 -0.000000 -0.000000 -0.000000 -0.000000 -0.000000 -0.000000 -0.000000 -0.000000 -0.000000 -0.000000 -0.000000 -0.000000 -0.000000 -0.000000 -0.000000 -0.000000 -0.000000 -0.000000 -0.000000 -0.000000 -0.000000 -0.000000 -0.000000 -0.000000 -0.000000 -0.000000 0.000001 0.000000 -0.000000 0.000001 0.000000 -0.000000 0.000001 0.000000 -0.000000 
-17.033377 69.238274 -80.016159 171.449400 -187.782869 176.599527 0.000000 0.000000 0.000001 -16.629830 8.332897 17.778897 27.248083 2.213334 -0.556517 -3.450267 -6.289248 -3.533962 -0.000000 0.000000 0.000000 -0.000001 -0.000000 -0.000001 5.481886 -4.948482 14.468234 17.836680 -9.588516 -3.423402 -17.060959 -16.446590 -4.588409 0.000000 -0.000002 -0.000000 -0.000000 -0.000000 -0.000001 1.583862 0.620672 3.655875 4.832206 1.395140 3.788004 4.827558 1.332864 3.881593 0.298147 0.348346 2.166832 -30.408166 1.529180 4.102222 0.000001 0.000001 -0.000000 0.000001 0.000001 -0.000000 0.000001 0.000001 -0.000001 0.000001 0.000001 -0.000000 0.000001 0.000001 -0.000000 0.000001 0.000001 -0.000000 0.000001 0.000001 -0.000000 0.000001 0.000001 -0.000000 0.000001 0.000001 -0.000000 -0.407708 -0.479989 -21.642149 187.661811 -200.266583 120.326992 0.000085 -65.192079 0.000099 3.229646 40.675371 8.521377 61.868311 -2.992019 32.589090 30.518877 -6.612340 19.548372 -0.000000 -0.000000 -0.000004 -3.202676 -1.109323 -32.643018 4.405800 5.670347 -75.675655 0.000002 -0.000001 -0.000000 -2.325632 -2.320853 -22.641527 4.516475 5.697336 -76.793060 -0.000000 0.000001 -0.000003 -1.392761 -1.908821 -16.272089 3.761692 5.466517 -69.044982 -0.000001 0.000001 -0.000004 -2.943127 -3.326061 -23.980931 1.782901 4.208908 -45.900155 -0.000000 -0.000000 0.000003 -0.000001 -0.000001 0.000001 0.531061 4.212205 18.319100 -1.631102 -12.263201 56.347561 -0.000001 32.706293 0.000008 7.985401 -2.943540 0.057245 35.657132 4.915290 -16.031940 5.166508 -23.380419 16.383488 0.000000 -0.000001 0.000002 -0.723774 -2.299834 31.149593 0.874459 -2.718639 35.655309 -0.000002 -0.000001 0.000000 3.409735 -8.093114 38.680212 0.458229 -2.016267 25.605018 0.000000 0.000001 0.000003 11.913966 -18.103898 40.000989 0.489079 -2.079400 26.468463 0.000000 -0.000001 -0.000000 11.535337 -16.536825 42.695120 0.376324 -1.835717 23.168459 0.000001 0.000001 -0.000001 0.000001 -0.000003 0.000001 0.000000 -0.000001 -0.000000 0.000000 0.000000 0.000000 0.000000 -0.000001 -0.000000 0.000000 -0.000001 -0.000000 0.000000 -0.000001 -0.000000 0.000000 0.000000 -0.000000 0.000000 -0.000001 -0.000000 0.000000 -0.000001 -0.000000 0.000000 -0.000001 -0.000000 0.000000 0.000000 -0.000000 0.000000 0.000000 0.000001 0.000000 0.000000 0.000001 0.000000 0.000000 0.000001 
-17.063967 69.219337 -80.021240 171.319982 -188.197543 176.526225 -0.000000 -0.000001 -0.000000 -16.787459 8.451691 18.083564 27.385015 1.589894 -0.766981 -3.427294 -6.324313 -3.324113 0.000000 -0.000000 -0.000000 -0.000000 0.000001 -0.000000 5.637251 -4.911892 14.700818 17.754447 -9.561186 -3.422116 -17.077496 -16.894229 -4.696991 0.000000 -0.000000 -0.000000 0.000000 -0.000000 -0.000002 1.562596 0.599718 3.607638 4.803362 1.364761 3.707214 4.797092 1.304458 3.801050 0.442937 -0.368424 1.444735 -30.810601 -2.873632 3.868590 0.000002 0.000000 -0.000000 0.000002 0.000000 -0.000000 0.000002 0.000000 -0.000001 0.000002 0.000000 -0.000001 0.000002 0.000000 -0.000000 0.000002 0.000000 -0.000001 0.000002 0.000000 -0.000000 0.000002 0.000000 -0.000000 0.000002 0.000000 -0.000000 -0.412889 -0.569273 -21.563529 187.219310 -199.667931 120.980340 0.000051 -66.853994 0.000051 -5.547474 35.006260 11.086663 61.837357 -2.978402 32.598666 30.518866 -6.612343 19.548363 -0.000000 -0.000004 0.000001 -3.087408 -1.107161 -31.923105 4.347292 5.655145 -75.082740 0.000001 -0.000001 -0.000000 -2.287563 -2.421544 -22.084894 4.506247 5.694940 -76.690033 -0.000001 -0.000002 0.000006 -1.293360 -1.531020 -16.332442 3.783521 5.474793 -69.273910 0.000001 0.000002 -0.000003 -2.928060 -3.347967 -23.833745 1.819438 4.243892 -46.395815 -0.000001 0.000003 0.000001 0.000001 0.000000 0.000002 0.520637 4.324159 18.572403 -1.673870 -12.914519 55.522276 -0.000001 31.712172 -0.000020 7.923798 -2.866894 0.090728 35.572701 4.563320 -16.044331 5.288437 -23.383272 16.480584 0.000000 0.000002 0.000003 -0.703523 -2.342115 31.241774 0.879616 -2.725811 35.763994 -0.000001 0.000001 0.000004 3.456405 -8.150539 38.683449 0.461982 -2.024099 25.711757 0.000001 0.000000 -0.000001 11.942526 -18.103797 40.078058 0.487083 -2.075407 26.413653 -0.000000 0.000002 0.000005 11.479685 -16.483135 42.674978 0.380307 -1.844992 23.292408 0.000001 0.000001 0.000001 -0.000000 -0.000002 0.000001 -0.000001 0.000001 -0.000001 -0.000000 0.000001 -0.000000 -0.000001 0.000001 -0.000001 -0.000001 0.000001 -0.000001 -0.000001 0.000001 -0.000001 -0.000000 0.000001 -0.000000 -0.000001 0.000001 -0.000001 -0.000001 0.000001 -0.000001 -0.000001 0.000001 -0.000001 -0.000000 0.000001 -0.000000 -0.000000 -0.000001 -0.000000 -0.000000 -0.000001 -0.000000 -0.000000 -0.000001 -0.000000 
-17.100254 69.195297 -80.032089 171.210631 -188.606480 176.434428 0.000001 0.000000 0.000000 -16.946693 8.447345 18.188821 27.510243 1.156599 -0.612414 -3.404266 -6.324774 -3.372966 0.000000 0.000001 0.000001 -0.000002 0.000001 0.000003 5.742384 -4.836110 14.959907 17.700555 -9.528050 -3.420572 -17.104139 -17.387655 -4.819897 -0.000000 0.000000 -0.000000 0.000000 -0.000000 -0.000001 1.544318 0.552507 3.572444 4.773370 1.283234 3.649138 4.766896 1.223321 3.743172 0.510836 -1.120204 0.687147 -31.096499 -7.332725 3.406282 0.000003 0.000000 -0.000000 0.000003 0.000000 -0.000000 0.000003 0.000000 0.000000 0.000003 0.000000 -0.000000 0.000002 0.000000 -0.000000 0.000003 0.000000 -0.000000 0.000002 0.000000 -0.000000 0.000003 0.000000 -0.000000 0.000003 0.000000 -0.000000 -0.418249 -0.656860 -21.472561 186.675887 -198.415042 121.070663 0.000023 -67.801635 0.000026 -9.676312 29.489557 13.898282 61.806389 -2.964848 32.608105 30.518870 -6.612335 19.548379 0.000001 -0.000000 -0.000002 -2.974589 -1.104034 -31.204348 4.288946 5.639362 -74.489886 -0.000000 0.000002 -0.000003 -2.247835 -2.519061 -21.532593 4.496036 5.692515 -76.586952 -0.000002 0.000000 -0.000001 -1.192235 -1.150096 -16.396578 3.805364 5.482965 -69.502844 -0.000003 0.000002 -0.000003 -2.912911 -3.368710 -23.689353 1.856268 4.278582 -46.891554 0.000002 0.000001 0.000003 -0.000001 -0.000003 -0.000002 0.511143 4.415794 18.849416 -1.755227 -13.403216 54.793663 -0.000011 30.877865 0.000027 7.850812 -2.740165 0.107966 35.440247 4.374191 -16.125880 5.328410 -23.343637 16.528387 0.000001 0.000000 0.000003 -0.703367 -2.350293 31.326929 0.883146 -2.730704 35.838098 -0.000001 -0.000002 -0.000004 3.477151 -8.170245 38.739931 0.465677 -2.031747 25.816025 -0.000003 -0.000001 -0.000001 11.957173 -18.066730 40.199580 0.486920 -2.075064 26.408983 0.000001 -0.000003 -0.000003 11.446968 -16.424146 42.734564 0.379830 -1.843892 23.277657 0.000001 -0.000001 0.000002 0.000000 0.000001 0.000001 -0.000000 -0.000001 -0.000000 -0.000000 -0.000001 -0.000000 -0.000000 -0.000001 -0.000000 -0.000000 -0.000001 -0.000000 -0.000000 -0.000001 -0.000000 -0.000000 -0.000001 -0.000000 -0.000000 -0.000001 -0.000000 -0.000000 -0.000001 -0.000000 -0.000000 -0.000001 -0.000000 -0.000000 -0.000001 -0.000000 0.000001 0.000000 0.000000 0.000001 0.000000 0.000000 0.000001 0.000000 0.000000 
